<?xml version="1.0" encoding="UTF-8"?>
<svg width="200px" height="198px" viewBox="0 0 200 198" version="1.1" xmlns="http://www.w3.org/2000/svg" xmlns:xlink="http://www.w3.org/1999/xlink">
    <!-- Generator: Sketch 63.1 (92452) - https://sketch.com -->
    <title>Combined Shape</title>
    <desc>Created with Sketch.</desc>
    <g id="Page-1" stroke="none" stroke-width="1" fill="none" fill-rule="evenodd" stroke-opacity="0">
        <g id="test" fill="#000000" fill-rule="nonzero" stroke="#000000">
            <g id="f2COPbzjQm-link">
                <path d="M93.5097028,0.609577327 C95.2244622,0.395119812 108.16813,0.663191704 110.491352,0.931263591 C134.166095,3.66559688 154.687893,13.316185 171.116395,29.5613416 C187.987415,46.2354133 197.944083,67.8420077 199.824786,91.5395629 C200.156675,95.3461839 199.990731,106.015445 199.548212,109.446766 C197.556879,125.90638 192.246656,140.167804 183.23034,153.410556 C173.384303,167.940052 159.666227,179.681601 143.735559,187.241228 C133.281058,192.227366 122.881872,195.122542 110.823241,196.57013 C107.338408,196.999045 96.4413883,197.159888 92.6246657,196.891816 C68.3967746,194.961699 46.492106,185.203882 29.5104563,168.637039 C12.6947511,152.284653 2.73808358,131.643118 0.248916689,108.106406 C-0.0829722297,104.943158 -0.0829722297,92.6118507 0.248916689,89.448602 C2.62745394,67.0914066 11.5884547,47.6293871 26.9106598,31.4914592 C43.5051057,14.1204007 66.7926449,2.91499561 90.4673877,0.877649214 C91.7949434,0.770420459 93.1778139,0.663191704 93.5097028,0.609577327 Z M102.360074,23.1276162 C100.755944,22.5914724 97.7689439,22.4842437 96.1094993,22.8595443 C94.3394251,23.234845 92.5693509,24.1462894 90.9652211,25.4330345 C90.2461285,26.1836358 75.0898678,40.9275898 57.3891255,58.3522628 C33.3824937,81.9425893 24.9746411,90.3600464 24.4768077,91.1642621 C23.2045669,93.3088376 23.0386224,94.1666674 23.0386224,97.1154581 C23.0386224,99.4744911 23.0939373,99.7961772 23.5364558,100.975694 C23.8130299,101.672681 24.4214929,102.744968 24.8086967,103.334726 C25.9149931,104.943158 33.3271789,112.020255 34.5994198,112.770857 C38.3055127,114.808203 42.8413279,114.754589 46.3261616,112.663628 C47.2111987,112.127484 54.3468104,105.372072 72.8219602,87.4648704 C86.7612948,74.0076611 98.3220921,62.8558707 98.5986662,62.748642 C99.1518144,62.4269553 100.147481,62.4269553 100.811259,62.748642 C101.087833,62.9094848 112.372056,73.9004324 125.924187,87.1967983 C145.726893,106.766046 150.483967,111.484112 150.594597,111.966641 C150.871171,113.199772 150.483967,113.735915 146.833189,117.328079 C146.556615,117.542536 145.395004,118.668438 143.293041,120.705785 L143.293041,120.705785 L142.297374,120.705785 C141.412337,120.705785 141.191077,120.652171 140.41667,119.901569 C139.918837,119.472654 131.953503,111.859413 122.660613,103.066654 C111.874223,92.8263081 105.347074,86.7142688 104.627982,86.2317393 C102.857907,85.1058374 100.811259,84.5696938 98.5986662,84.5696938 C95.8329253,84.5696938 93.7309621,85.2130661 91.6289989,86.7142688 C91.1311656,87.0359549 82.9998871,94.9708831 73.5410529,104.407014 C57.6054065,120.164816 56.3986971,121.394236 55.7348245,122.677129 L55.4943266,123.157225 C54.6912374,124.821224 54.4021252,126.242363 54.4021252,127.943726 C54.4021252,129.820229 54.7340142,131.321432 55.6743661,133.144321 C56.2828291,134.431065 56.7806625,134.96721 60.7080147,138.827445 C65.2438299,143.331053 65.9076078,143.759967 68.286145,144.564183 C71.2178305,145.475628 74.1495159,145.26117 77.0258865,143.867196 C78.5747015,143.116595 78.9065904,142.848523 88.0335357,134.002151 C93.2331287,128.908785 97.7136291,124.619634 98.045518,124.458792 C98.7646107,124.029876 99.8155923,124.029876 100.424055,124.405177 C101.309092,125.048549 118.733261,141.937079 118.95452,142.473222 C119.341724,143.116595 119.341724,143.813582 118.95452,144.40334 C118.84389,144.725026 114.750594,148.799719 109.882889,153.517784 C109.329741,154.107543 106.398056,156.949105 101.087833,162.096085 C100.534685,162.203314 100.202796,162.256928 100.092166,162.256928 C96.0541845,162.685843 93.3437584,167.028608 94.7819437,170.781614 C96.4413883,175.231608 102.360074,176.464738 105.568334,173.033418 C106.619315,171.961131 107.061834,170.996072 107.338408,169.494869 C107.338408,169.441255 107.449037,169.012339 107.559667,168.315352 C113.201779,162.793072 116.299409,159.683438 116.907872,159.09368 C126.919854,149.17502 126.975169,149.067791 127.804891,146.440686 C128.302724,144.778641 128.302724,141.990693 127.749576,140.221419 C126.864539,137.540699 126.587965,137.165399 116.299409,127.246739 C110.325408,121.456386 106.287426,117.70338 105.457704,117.167236 C102.19413,114.969046 97.9348884,114.700975 94.1734807,116.470249 C92.5140361,117.274464 92.1821471,117.596151 81.4510721,127.99734 C72.8219602,136.361183 72.6007009,136.522026 71.2178305,136.253954 C70.7753119,136.146725 69.7243303,135.288896 67.2904782,132.876249 C65.4650892,131.106974 63.8056446,129.498543 63.695015,129.176856 C63.363126,128.533484 63.3078112,127.353968 63.6397001,126.817824 C63.8056446,126.603366 71.3837749,119.043739 80.566035,110.036523 C98.1838051,92.6450917 97.8986683,92.8636663 99.2338242,93.4344416 L99.3177589,93.4696805 C99.7049626,93.6305238 106.287426,99.7425626 117.184446,110.197367 C126.698595,119.258197 134.885188,126.978667 135.438336,127.407582 C138.978485,130.088301 144.344022,130.302758 148.21606,127.943726 C148.824523,127.62204 150.926486,125.691922 153.526282,123.118432 C157.343005,119.311811 157.840838,118.829282 158.449301,117.542536 C159.334338,115.612419 159.610912,114.379288 159.610912,112.341942 C159.555598,110.250981 158.947135,108.106406 157.840838,106.497974 C157.343005,105.800987 148.271374,96.7401578 131.676928,80.4950013 C109.329741,58.5667202 106.176797,55.5107008 105.125815,55.0281713 C102.968537,53.9558835 102.028185,53.7414261 99.7602775,53.7414261 C97.2711106,53.7414261 95.7222956,54.1167269 93.7862769,55.2962434 C92.7352953,55.9396157 76.4174235,71.5414 44.7220318,102.262438 C42.8413279,104.085327 41.4031426,105.318458 41.0712537,105.372072 C39.743698,105.693759 39.3011794,105.425687 35.7057162,101.940752 C32.0549381,98.3485892 31.6677343,97.758831 31.9443084,96.4720858 C32.0549381,95.8823275 37.1992163,90.7353472 64.5800521,63.8745439 C82.4467389,46.2890277 97.3264254,31.8131455 97.6029995,31.7059168 C98.3220921,31.3306161 99.2624441,31.3306161 99.9815367,31.7595311 C100.313426,31.9739886 108.16813,39.3727729 117.516335,48.2727596 C118.622631,49.3450472 124.320057,54.7064851 134.497984,64.4106875 C134.550841,58.2116741 134.603697,54.6562066 134.608291,53.697507 L134.608614,53.5805833 C134.663929,43.6083087 134.719244,42.8040931 135.051132,42.2679493 C135.685409,41.345782 136.218671,41.2068877 140.511915,41.1963631 L141.766684,41.196358 C146.208309,41.2072157 146.64079,41.3588359 147.275708,42.5896356 C147.586635,43.1421458 147.654821,43.9299356 147.662194,56.1062438 L147.662816,64.1816745 C147.667956,75.8342388 147.753628,75.7983814 148.824523,77.9215108 C149.377671,79.0474127 150.262708,80.0124717 156.568597,86.2317393 C157.066431,86.7142688 159.444968,89.0733018 163.704209,93.3088376 C163.759524,93.95221 163.814839,94.2738961 163.814839,94.3811249 C164.036098,96.4720858 165.529598,98.4558179 167.520932,99.4208764 C168.295339,99.7961772 168.737858,99.903406 170.286673,99.903406 C172.001432,99.903406 172.167377,99.8497913 173.328988,99.2600336 C174.656543,98.5630467 175.596895,97.5443735 176.260673,96.1503996 C176.592562,95.3461839 176.703192,94.8636544 176.703192,93.5769092 C176.703192,91.5395629 176.205358,90.4136611 174.767173,89.0733018 C173.605562,88.001014 172.443951,87.4112557 171.06108,87.2504129 C170.120728,87.1431837 170.120728,87.0895696 163.427635,80.60223 C162.985116,80.1733145 160.772524,77.9215108 156.734542,74.0076611 C156.691843,66.5166979 156.682104,61.5815347 156.679883,59.2268332 L156.679227,57.8161192 C156.568597,42.8577074 156.513283,41.5709624 156.181394,40.6595179 C155.351671,38.0860278 153.913486,36.0486814 151.977467,34.7083219 C149.267041,32.6709755 147.662911,32.3492893 141.135763,32.3492893 C134.774558,32.3492893 133.225743,32.6709755 130.625947,34.4402501 C127.970836,36.1559102 126.311391,38.8366291 125.758243,42.0534918 C125.647613,42.8040931 125.536983,43.3938512 125.481669,43.4474656 C125.481669,43.4474656 121.001168,39.3191585 115.635631,34.2257925 C109.274426,28.1137534 105.457704,24.6288188 104.738611,24.1999038 C104.130148,23.8246031 103.023852,23.3420737 102.360074,23.1276162 Z" id="Combined-Shape"></path>
            </g>
        </g>
    </g>
</svg>