<?xml version="1.0" encoding="utf-8"?>
<!-- Generator: Adobe Illustrator 22.1.0, SVG Export Plug-In . SVG Version: 6.00 Build 0)  -->
<svg version="1.1" id="Capa_1" xmlns="http://www.w3.org/2000/svg" xmlns:xlink="http://www.w3.org/1999/xlink" x="0px" y="0px"
	 viewBox="0 0 283.5 283.5" style="enable-background:new 0 0 283.5 283.5;" xml:space="preserve">
<style type="text/css">
	.st0{fill:#34366E;}
	.st1{fill:#2E2F63;}
	.st2{fill:#FFFFFF;}
	.st3{fill:#58167D;}
	.st4{fill:#008C7A;}
	.st5{fill:#421467;}
	.st6{fill:#006763;}
	.st7{fill:url(#SVGID_1_);}
</style>
<circle class="st0" cx="233.7" cy="192.7" r="21.3"/>
<path class="st1" d="M255,192.7c0-1.9-0.2-3.6-0.7-5.4l-9.5-8.5l-3.8,0.1l-1.6,2.2l-2.2,0.3l-4-4.6l-4.2,3.5l-10.5,11.3l-0.1,2.8
	l19.3,19.1C247.6,211.6,255,203,255,192.7z"/>
<path class="st2" d="M248.7,190.2C248.7,190.2,248.7,190.2,248.7,190.2l-2.8-2.7c-0.1-0.1-0.2-0.2-0.2-0.4v-6.3
	c0-1.3-1.1-2.4-2.4-2.4h-1.7c-1.3,0-2.4,1.1-2.4,2.4v0l-4-3.9c-0.9-0.9-2.5-0.9-3.4,0L218,190.6c-0.5,0.5-0.7,1.1-0.7,1.7
	c0,0.6,0.3,1.3,0.7,1.7l1.3,1.3c0.9,0.9,2.5,0.9,3.4,0l10.5-10.4c0.2-0.2,0.5-0.2,0.7,0l10.3,10.3c0.2,0.2,0.2,0.5,0,0.8l-1.3,1.3
	c-0.2,0.2-0.5,0.2-0.7,0l-7.2-7c-0.9-0.9-2.5-0.9-3.4,0l-7,7c-0.9,0.9-0.9,2.5,0,3.4l1.3,1.3c0.9,0.9,2.5,0.9,3.4,0l3.8-3.7
	c0.2-0.2,0.5-0.2,0.7,0l3.7,3.7c0.1,0.1,0.2,0.2,0.2,0.4c0,0.1-0.1,0.3-0.2,0.4l-3.7,3.7c0,0,0,0,0,0c-0.8,0-1.4,0.6-1.4,1.4
	c0,0.8,0.6,1.4,1.4,1.4c0.8,0,1.4-0.6,1.4-1.4c0,0,0,0,0,0l3.7-3.7c0.5-0.5,0.7-1.1,0.7-1.7c0-0.7-0.3-1.3-0.7-1.7l-3.7-3.7
	c-0.9-0.9-2.5-0.9-3.4,0l-3.8,3.7c-0.2,0.2-0.5,0.2-0.7,0l-1.3-1.3c-0.2-0.2-0.2-0.5,0-0.7l7-7c0.2-0.2,0.5-0.2,0.7,0l7.2,7
	c0.9,0.9,2.5,0.9,3.4,0l1.3-1.3c0.9-0.9,0.9-2.5,0-3.4l-10.3-10.3c-0.9-0.9-2.5-0.9-3.4,0L221.4,194c-0.2,0.2-0.5,0.2-0.7,0
	l-1.3-1.3c-0.1-0.1-0.2-0.2-0.2-0.4s0.1-0.3,0.2-0.4l13.7-13.7c0.2-0.2,0.5-0.2,0.7,0l7.3,7v-4.5c0-0.3,0.2-0.5,0.5-0.5h1.7
	c0.3,0,0.5,0.2,0.5,0.5v6.3c0,0.6,0.3,1.3,0.7,1.7l2.7,2.7c0,0,0,0,0,0c0,0.8,0.6,1.4,1.4,1.4s1.4-0.6,1.4-1.4
	C250.1,190.8,249.4,190.2,248.7,190.2z"/>
<circle class="st3" cx="150.1" cy="192.2" r="21.3"/>
<path class="st4" d="M166.3,204.3C166.2,204.3,166.2,204.4,166.3,204.3C166.2,204.4,166.2,204.3,166.3,204.3z"/>
<path class="st5" d="M171.3,192.1c0-1.9-0.2-3.6-0.7-5.4l-9.5-8.5l-3.8,0.1l-1.6,2.2l-2.2,0.3l-4-4.6l-4.2,3.5l-10.5,11.3l-0.1,2.8
	l19.3,19.1C163.9,211.1,171.3,202.5,171.3,192.1z"/>
<path class="st6" d="M166,204.8"/>
<path class="st2" d="M165,189.7C165,189.7,165,189.8,165,189.7l-2.8-2.7c-0.1-0.1-0.2-0.2-0.2-0.4v-6.3c0-1.3-1.1-2.4-2.4-2.4H158
	c-1.3,0-2.4,1.1-2.4,2.4v0l-4-3.9c-0.9-0.9-2.5-0.9-3.4,0l-13.7,13.7c-0.5,0.5-0.7,1.1-0.7,1.7c0,0.6,0.3,1.3,0.7,1.7l1.3,1.3
	c0.9,0.9,2.5,0.9,3.4,0l10.5-10.4c0.2-0.2,0.5-0.2,0.7,0l10.3,10.3c0.2,0.2,0.2,0.5,0,0.8l-1.3,1.3c-0.2,0.2-0.5,0.2-0.7,0l-7.2-7
	c-0.9-0.9-2.5-0.9-3.4,0l-7,7c-0.9,0.9-0.9,2.5,0,3.4l1.3,1.3c0.9,0.9,2.5,0.9,3.4,0l3.8-3.7c0.2-0.2,0.5-0.2,0.7,0l3.7,3.7
	c0.1,0.1,0.2,0.2,0.2,0.4c0,0.1-0.1,0.3-0.2,0.4l-3.7,3.7c0,0,0,0,0,0c-0.8,0-1.4,0.6-1.4,1.4c0,0.8,0.6,1.4,1.4,1.4
	c0.8,0,1.4-0.6,1.4-1.4c0,0,0,0,0,0l3.7-3.7c0.5-0.5,0.7-1.1,0.7-1.7c0-0.7-0.3-1.3-0.7-1.7l-3.7-3.7c-0.9-0.9-2.5-0.9-3.4,0
	l-3.8,3.7c-0.2,0.2-0.5,0.2-0.7,0l-1.3-1.3c-0.2-0.2-0.2-0.5,0-0.7l7-7c0.2-0.2,0.5-0.2,0.7,0l7.2,7c0.9,0.9,2.5,0.9,3.4,0l1.3-1.3
	c0.9-0.9,0.9-2.5,0-3.4l-10.3-10.3c-0.9-0.9-2.5-0.9-3.4,0l-10.5,10.4c-0.2,0.2-0.5,0.2-0.7,0l-1.3-1.3c-0.1-0.1-0.2-0.2-0.2-0.4
	c0-0.1,0.1-0.3,0.2-0.4l13.7-13.7c0.2-0.2,0.5-0.2,0.7,0l7.3,7v-4.5c0-0.3,0.2-0.5,0.5-0.5h1.7c0.3,0,0.5,0.2,0.5,0.5v6.3
	c0,0.6,0.3,1.3,0.7,1.7l2.7,2.7c0,0,0,0,0,0c0,0.8,0.6,1.4,1.4,1.4s1.4-0.6,1.4-1.4C166.4,190.4,165.8,189.7,165,189.7z"/>
<path class="st4" d="M74.5,131.5C74.5,131.5,74.5,131.6,74.5,131.5C74.5,131.6,74.5,131.5,74.5,131.5z"/>
<path class="st4" d="M77.4,122.4C77.4,122.4,77.4,122.4,77.4,122.4l-2.3-2.3c-0.1-0.1-0.1-0.2-0.1-0.3v-5.2c0-1.1-0.9-2-2-2h-1.4
	c-1.1,0-2,0.9-2,2v0l-3.4-3.2c-0.8-0.8-2-0.7-2.8,0l-11.3,11.3c-0.4,0.4-0.6,0.9-0.6,1.4c0,0.5,0.2,1,0.6,1.4l1.1,1.1
	c0.8,0.8,2,0.8,2.8,0l8.7-8.6c0.2-0.2,0.4-0.2,0.6,0l8.5,8.5c0.2,0.2,0.2,0.5,0,0.6l-1.1,1.1c-0.2,0.2-0.4,0.2-0.6,0l-6-5.8
	c-0.8-0.8-2.1-0.8-2.8,0l-5.8,5.8c-0.8,0.8-0.8,2.1,0,2.8l1.1,1.1c0.8,0.8,2,0.8,2.8,0l3.1-3.1c0.2-0.2,0.4-0.2,0.6,0l3.1,3
	c0.1,0.1,0.1,0.2,0.1,0.3c0,0.1,0,0.2-0.1,0.3l-3.1,3.1c0,0,0,0,0,0c-0.6,0-1.1,0.5-1.1,1.1c0,0.6,0.5,1.1,1.1,1.1
	c0.6,0,1.1-0.5,1.1-1.1c0,0,0,0,0,0l3.1-3.1c0.4-0.4,0.6-0.9,0.6-1.4c0-0.5-0.2-1-0.6-1.4l-3.1-3c-0.8-0.8-2-0.8-2.8,0l-3.1,3.1
	c-0.2,0.2-0.4,0.2-0.6,0l-1.1-1.1c-0.2-0.2-0.2-0.4,0-0.6l5.8-5.8c0.2-0.2,0.4-0.2,0.6,0l6,5.8c0.8,0.8,2,0.8,2.8,0l1.1-1.1
	c0.8-0.8,0.8-2.1,0-2.8l-8.5-8.5c-0.8-0.8-2-0.8-2.8,0l-8.7,8.6c-0.2,0.2-0.5,0.2-0.6,0l-1.1-1.1c-0.1-0.1-0.1-0.2-0.1-0.3
	s0-0.2,0.1-0.3l11.3-11.3c0.2-0.2,0.4-0.2,0.6,0l6,5.8v-3.7c0-0.2,0.2-0.4,0.4-0.4H73c0.2,0,0.4,0.2,0.4,0.4v5.2
	c0,0.5,0.2,1,0.6,1.4l2.3,2.3c0,0,0,0,0,0c0,0.6,0.5,1.1,1.1,1.1s1.1-0.5,1.1-1.1C78.6,122.9,78.1,122.4,77.4,122.4z"/>
<linearGradient id="SVGID_1_" gradientUnits="userSpaceOnUse" x1="142.3833" y1="239.9047" x2="160.7641" y2="258.2854">
	<stop  offset="4.250000e-02" style="stop-color:#421467"/>
	<stop  offset="0.5" style="stop-color:#58167D"/>
	<stop  offset="0.5992" style="stop-color:#52287E"/>
	<stop  offset="0.802" style="stop-color:#3F3374"/>
	<stop  offset="0.975" style="stop-color:#2E2F63"/>
</linearGradient>
<path class="st7" d="M165.3,248.7C165.3,248.7,165.3,248.7,165.3,248.7l-2.9-2.9c-0.1-0.1-0.2-0.2-0.2-0.4v-6.6
	c0-1.4-1.1-2.5-2.5-2.5h-1.8c-1.4,0-2.5,1.1-2.5,2.5v0l-4.2-4.1c-1-1-2.6-0.9-3.6,0l-14.4,14.4c-0.5,0.5-0.7,1.1-0.7,1.8
	c0,0.7,0.3,1.3,0.7,1.8l1.4,1.4c1,1,2.6,1,3.6,0l11-10.9c0.2-0.2,0.6-0.2,0.8,0l10.8,10.8c0.2,0.2,0.2,0.6,0,0.8l-1.3,1.3
	c-0.2,0.2-0.6,0.2-0.8,0l-7.6-7.4c-1-1-2.6-1-3.6,0l-7.3,7.3c-1,1-1,2.6,0,3.6l1.3,1.3c1,1,2.6,1,3.6,0l3.9-3.9
	c0.2-0.2,0.6-0.2,0.8,0l3.9,3.8c0.1,0.1,0.2,0.2,0.2,0.4c0,0.1-0.1,0.3-0.2,0.4l-3.9,3.9c0,0,0,0,0,0c-0.8,0-1.5,0.6-1.5,1.5
	c0,0.8,0.6,1.5,1.5,1.5c0.8,0,1.5-0.6,1.5-1.5c0,0,0,0,0,0l3.9-3.9c0.5-0.5,0.7-1.1,0.7-1.8c0-0.7-0.3-1.3-0.8-1.8l-3.9-3.8
	c-1-1-2.6-1-3.6,0l-3.9,3.9c-0.2,0.2-0.6,0.2-0.8,0l-1.3-1.3c-0.2-0.2-0.2-0.6,0-0.8l7.3-7.3c0.2-0.2,0.6-0.2,0.8,0l7.6,7.4
	c1,1,2.6,0.9,3.6,0l1.3-1.3c1-1,1-2.6,0-3.6l-10.8-10.8c-1-1-2.6-1-3.6,0l-11,10.9c-0.2,0.2-0.6,0.2-0.8,0l-1.4-1.4
	c-0.1-0.1-0.2-0.2-0.2-0.4c0-0.1,0.1-0.3,0.2-0.4l14.4-14.4c0.2-0.2,0.6-0.2,0.8,0l7.6,7.4v-4.7c0-0.3,0.2-0.6,0.6-0.6h1.8
	c0.3,0,0.6,0.2,0.6,0.6v6.6c0,0.7,0.3,1.3,0.7,1.8l2.9,2.9c0,0,0,0,0,0.1c0,0.8,0.6,1.5,1.5,1.5s1.5-0.6,1.5-1.5
	C166.8,249.3,166.1,248.7,165.3,248.7z"/>
<path class="st0" d="M251.2,248.7C251.2,248.7,251.2,248.7,251.2,248.7l-2.9-2.9c-0.1-0.1-0.2-0.2-0.2-0.4v-6.6
	c0-1.4-1.1-2.5-2.5-2.5h-1.8c-1.4,0-2.5,1.1-2.5,2.5v0l-4.2-4.1c-1-1-2.6-0.9-3.6,0l-14.4,14.4c-0.5,0.5-0.7,1.1-0.7,1.8
	c0,0.7,0.3,1.3,0.7,1.8l1.4,1.4c1,1,2.6,1,3.6,0l11-10.9c0.2-0.2,0.6-0.2,0.8,0l10.8,10.8c0.2,0.2,0.2,0.6,0,0.8l-1.3,1.3
	c-0.2,0.2-0.6,0.2-0.8,0l-7.6-7.4c-1-1-2.6-1-3.6,0l-7.3,7.3c-1,1-1,2.6,0,3.6l1.3,1.3c1,1,2.6,1,3.6,0l3.9-3.9
	c0.2-0.2,0.6-0.2,0.8,0l3.9,3.8c0.1,0.1,0.2,0.2,0.2,0.4c0,0.1-0.1,0.3-0.2,0.4l-3.9,3.9c0,0,0,0,0,0c-0.8,0-1.5,0.6-1.5,1.5
	c0,0.8,0.6,1.5,1.5,1.5c0.8,0,1.5-0.6,1.5-1.5c0,0,0,0,0,0l3.9-3.9c0.5-0.5,0.7-1.1,0.7-1.8c0-0.7-0.3-1.3-0.8-1.8l-3.9-3.8
	c-1-1-2.6-1-3.6,0l-3.9,3.9c-0.2,0.2-0.6,0.2-0.8,0l-1.3-1.3c-0.2-0.2-0.2-0.6,0-0.8l7.3-7.3c0.2-0.2,0.6-0.2,0.8,0l7.6,7.4
	c1,1,2.6,0.9,3.6,0l1.3-1.3c1-1,1-2.6,0-3.6l-10.8-10.8c-1-1-2.6-1-3.6,0l-11,10.9c-0.2,0.2-0.6,0.2-0.8,0l-1.4-1.4
	c-0.1-0.1-0.2-0.2-0.2-0.4c0-0.1,0.1-0.3,0.2-0.4l14.4-14.4c0.2-0.2,0.6-0.2,0.8,0l7.6,7.4v-4.7c0-0.3,0.2-0.6,0.6-0.6h1.8
	c0.3,0,0.6,0.2,0.6,0.6v6.6c0,0.7,0.3,1.3,0.7,1.8l2.9,2.9c0,0,0,0,0,0.1c0,0.8,0.6,1.5,1.5,1.5s1.5-0.6,1.5-1.5
	C252.7,249.3,252,248.7,251.2,248.7z"/>
<circle class="st4" cx="67.8" cy="191" r="21.3"/>
<path class="st4" d="M84,203.1C83.9,203.1,83.9,203.2,84,203.1C83.9,203.2,83.9,203.1,84,203.1z"/>
<path class="st4" d="M79,207.6c2-0.8,3.6-2.2,4.7-4C82.5,205.4,80.8,206.8,79,207.6z"/>
<path class="st6" d="M89.1,191c0-1.9-0.2-3.6-0.7-5.4l-9.5-8.5l-3.8,0.1l-1.6,2.2l-2.2,0.3l-4-4.6l-4.2,3.5l-10.5,11.3l-0.1,2.8
	l19.3,19.1C81.7,210,89.1,201.4,89.1,191z"/>
<path class="st6" d="M83.7,203.6"/>
<path class="st2" d="M82.7,188.5C82.7,188.5,82.7,188.5,82.7,188.5l-2.8-2.7c-0.1-0.1-0.2-0.2-0.2-0.4v-6.3c0-1.3-1.1-2.4-2.4-2.4
	h-1.7c-1.3,0-2.4,1.1-2.4,2.4v0l-4-3.9c-0.9-0.9-2.5-0.9-3.4,0L52.1,189c-0.5,0.5-0.7,1.1-0.7,1.7c0,0.6,0.3,1.3,0.7,1.7l1.3,1.3
	c0.9,0.9,2.5,0.9,3.4,0l10.5-10.4c0.2-0.2,0.5-0.2,0.7,0l10.3,10.3c0.2,0.2,0.2,0.5,0,0.8l-1.3,1.3c-0.2,0.2-0.5,0.2-0.7,0l-7.2-7
	c-0.9-0.9-2.5-0.9-3.4,0l-7,7c-0.9,0.9-0.9,2.5,0,3.4l1.3,1.3c0.9,0.9,2.5,0.9,3.4,0l3.8-3.7c0.2-0.2,0.5-0.2,0.7,0l3.7,3.7
	c0.1,0.1,0.2,0.2,0.2,0.4c0,0.1-0.1,0.3-0.2,0.4l-3.7,3.7c0,0,0,0,0,0c-0.8,0-1.4,0.6-1.4,1.4c0,0.8,0.6,1.4,1.4,1.4
	c0.8,0,1.4-0.6,1.4-1.4c0,0,0,0,0,0l3.7-3.7c0.5-0.5,0.7-1.1,0.7-1.7c0-0.7-0.3-1.3-0.7-1.7l-3.7-3.7c-0.9-0.9-2.5-0.9-3.4,0
	l-3.8,3.7c-0.2,0.2-0.5,0.2-0.7,0l-1.3-1.3c-0.2-0.2-0.2-0.5,0-0.7l7-7c0.2-0.2,0.5-0.2,0.7,0l7.2,7c0.9,0.9,2.5,0.9,3.4,0l1.3-1.3
	c0.9-0.9,0.9-2.5,0-3.4L69.4,182c-0.9-0.9-2.5-0.9-3.4,0l-10.5,10.4c-0.2,0.2-0.5,0.2-0.7,0l-1.3-1.3c-0.1-0.1-0.2-0.2-0.2-0.4
	c0-0.1,0.1-0.3,0.2-0.4l13.7-13.7c0.2-0.2,0.5-0.2,0.7,0l7.3,7v-4.5c0-0.3,0.2-0.5,0.5-0.5h1.7c0.3,0,0.5,0.2,0.5,0.5v6.3
	c0,0.6,0.3,1.3,0.7,1.7l2.7,2.7c0,0,0,0,0,0c0,0.8,0.6,1.4,1.4,1.4c0.8,0,1.4-0.6,1.4-1.4C84.1,189.2,83.5,188.5,82.7,188.5z"/>
<path class="st4" d="M82.2,248.7C82.2,248.7,82.2,248.7,82.2,248.7l-2.9-2.9c-0.1-0.1-0.2-0.2-0.2-0.4v-6.6c0-1.4-1.1-2.5-2.5-2.5
	h-1.8c-1.4,0-2.5,1.1-2.5,2.5v0l-4.2-4.1c-1-1-2.6-0.9-3.6,0l-14.4,14.4c-0.5,0.5-0.7,1.1-0.7,1.8c0,0.7,0.3,1.3,0.7,1.8l1.4,1.4
	c1,1,2.6,1,3.6,0l11-10.9c0.2-0.2,0.6-0.2,0.8,0L77.7,254c0.2,0.2,0.2,0.6,0,0.8l-1.3,1.3c-0.2,0.2-0.6,0.2-0.8,0l-7.6-7.4
	c-1-1-2.6-1-3.6,0l-7.3,7.3c-1,1-1,2.6,0,3.6l1.3,1.3c1,1,2.6,1,3.6,0l3.9-3.9c0.2-0.2,0.6-0.2,0.8,0l3.9,3.8
	c0.1,0.1,0.2,0.2,0.2,0.4c0,0.1-0.1,0.3-0.2,0.4l-3.9,3.9c0,0,0,0,0,0c-0.8,0-1.5,0.6-1.5,1.5c0,0.8,0.6,1.5,1.5,1.5
	c0.8,0,1.5-0.6,1.5-1.5c0,0,0,0,0,0l3.9-3.9c0.5-0.5,0.7-1.1,0.7-1.8c0-0.7-0.3-1.3-0.8-1.8l-3.9-3.8c-1-1-2.6-1-3.6,0l-3.9,3.9
	c-0.2,0.2-0.6,0.2-0.8,0l-1.3-1.3c-0.2-0.2-0.2-0.6,0-0.8l7.3-7.3c0.2-0.2,0.6-0.2,0.8,0l7.6,7.4c1,1,2.6,0.9,3.6,0l1.3-1.3
	c1-1,1-2.6,0-3.6l-10.8-10.8c-1-1-2.6-1-3.6,0l-11,10.9c-0.2,0.2-0.6,0.2-0.8,0l-1.4-1.4c-0.1-0.1-0.2-0.2-0.2-0.4
	c0-0.1,0.1-0.3,0.2-0.4l14.4-14.4c0.2-0.2,0.6-0.2,0.8,0l7.6,7.4v-4.7c0-0.3,0.2-0.6,0.6-0.6h1.8c0.3,0,0.6,0.2,0.6,0.6v6.6
	c0,0.7,0.3,1.3,0.7,1.8l2.9,2.9c0,0,0,0,0,0.1c0,0.8,0.6,1.5,1.5,1.5s1.5-0.6,1.5-1.5C83.7,249.3,83,248.7,82.2,248.7z"/>
<g>
	<path class="st6" d="M138.4,19.6v-9.1h1.5v3.3h4.5v-3.3h1.5v9.1h-1.5v-4.4h-4.5v4.4H138.4z"/>
	<path class="st6" d="M157.2,15.1c0,0.6-0.1,1.3-0.4,1.8c-0.2,0.6-0.6,1.1-1.1,1.5c-0.5,0.5-1,0.8-1.6,1c-0.6,0.2-1.2,0.4-1.8,0.4
		c-0.7,0-1.3-0.1-1.9-0.4c-0.6-0.2-1.1-0.6-1.6-1c-0.5-0.5-0.8-1-1.1-1.5c-0.2-0.6-0.4-1.2-0.4-1.8c0-0.6,0.1-1.3,0.4-1.8
		c0.2-0.6,0.6-1.1,1.1-1.5c0.5-0.5,1-0.8,1.6-1c0.6-0.2,1.2-0.4,1.9-0.4c0.7,0,1.3,0.1,1.9,0.4c0.6,0.2,1.1,0.6,1.6,1
		c0.5,0.5,0.8,1,1.1,1.6C157.1,13.9,157.2,14.5,157.2,15.1z M155.7,15.1c0-0.5-0.1-0.9-0.3-1.3c-0.2-0.4-0.4-0.8-0.7-1.1
		c-0.3-0.3-0.7-0.6-1.1-0.7c-0.4-0.2-0.8-0.3-1.3-0.3c-0.4,0-0.9,0.1-1.3,0.3s-0.8,0.4-1.1,0.7c-0.3,0.3-0.6,0.7-0.7,1.1
		c-0.2,0.4-0.2,0.9-0.2,1.3c0,0.5,0.1,0.9,0.2,1.3c0.2,0.4,0.4,0.8,0.7,1.1c0.3,0.3,0.7,0.6,1.1,0.7c0.4,0.2,0.8,0.3,1.3,0.3
		c0.4,0,0.9-0.1,1.3-0.3c0.4-0.2,0.8-0.4,1.1-0.7c0.3-0.3,0.6-0.7,0.7-1.1C155.6,16,155.7,15.6,155.7,15.1z"/>
	<path class="st6" d="M166.3,15.1c0-0.1,0-0.3-0.1-0.6c0-0.3-0.1-0.5-0.1-0.7c0,0.2-0.1,0.4-0.2,0.6c-0.1,0.2-0.2,0.4-0.3,0.6
		l-2.4,4.8l-2.4-4.9c-0.1-0.2-0.2-0.4-0.3-0.6c-0.1-0.2-0.1-0.4-0.2-0.6c0,0.2,0,0.4,0,0.6c0,0.2-0.1,0.4-0.1,0.7l-1,4.5H158
		l2.1-9.5l2.7,5.7c0,0.1,0.1,0.2,0.2,0.5s0.2,0.5,0.3,0.8c0.1-0.3,0.2-0.6,0.4-1c0-0.1,0.1-0.2,0.1-0.2l2.6-5.7l2.2,9.5h-1.4
		L166.3,15.1z"/>
	<path class="st6" d="M169.8,19.6v-9.1h5.1v1.3h-3.6v2.3h3.6v1.3h-3.6v2.9h3.6v1.3H169.8z"/>
</g>
<g>
	<path class="st6" d="M138.5,24.6v-3.2h0.7c0.2,0,0.4,0,0.5,0c0.1,0,0.2,0.1,0.3,0.1c0.1,0.1,0.2,0.2,0.2,0.3
		c0.1,0.1,0.1,0.3,0.1,0.4c0,0.2,0,0.3-0.1,0.4c-0.1,0.1-0.2,0.2-0.4,0.2c0.2,0,0.3,0.1,0.5,0.3c0.1,0.1,0.2,0.3,0.2,0.5
		c0,0.1,0,0.3-0.1,0.4c0,0.1-0.1,0.2-0.2,0.3c-0.1,0.1-0.2,0.2-0.3,0.2c-0.1,0-0.4,0.1-0.7,0.1H138.5z M138.8,21.7v1.1h0.3
		c0.3,0,0.5,0,0.6-0.1c0.1-0.1,0.2-0.2,0.2-0.4c0-0.2-0.1-0.4-0.2-0.4c-0.1-0.1-0.3-0.1-0.6-0.1H138.8z M138.8,23.1v1.2h0.3
		c0.2,0,0.4,0,0.4,0c0.1,0,0.2,0,0.2-0.1c0.1,0,0.1-0.1,0.2-0.2c0-0.1,0.1-0.2,0.1-0.3c0-0.1,0-0.2-0.1-0.3s-0.1-0.2-0.2-0.2
		c-0.1,0-0.1-0.1-0.2-0.1c-0.1,0-0.2,0-0.3,0h-0.1H138.8z"/>
	<path class="st6" d="M145.3,24.6v-3.2h0.8c0.2,0,0.4,0,0.5,0c0.1,0,0.2,0.1,0.3,0.1c0.1,0.1,0.2,0.2,0.2,0.3
		c0.1,0.1,0.1,0.3,0.1,0.4c0,0.3-0.1,0.5-0.2,0.6s-0.4,0.2-0.7,0.2h-0.1l1.3,1.5h-0.5l-1.2-1.5h-0.1v1.5H145.3z M145.7,21.7v1.1h0.3
		c0.3,0,0.5,0,0.6-0.1s0.2-0.2,0.2-0.4c0-0.2-0.1-0.4-0.2-0.4c-0.1-0.1-0.3-0.1-0.6-0.1H145.7z"/>
	<path class="st6" d="M152,24.6v-3.2h0.4v3.2H152z"/>
	<path class="st6" d="M157.5,24.6v-3.2h0.6c0.5,0,0.8,0,1,0.1c0.2,0,0.4,0.1,0.5,0.2c0.2,0.1,0.3,0.3,0.4,0.5
		c0.1,0.2,0.1,0.5,0.1,0.8c0,0.3,0,0.5-0.1,0.8c-0.1,0.2-0.2,0.4-0.4,0.5c-0.1,0.1-0.3,0.2-0.5,0.2c-0.2,0-0.5,0.1-0.9,0.1h-0.1
		H157.5z M157.9,24.2h0.2c0.4,0,0.7,0,0.8-0.1c0.2,0,0.3-0.1,0.4-0.2c0.1-0.1,0.2-0.3,0.3-0.4c0.1-0.2,0.1-0.4,0.1-0.6
		c0-0.2,0-0.4-0.1-0.6s-0.2-0.3-0.3-0.4c-0.1-0.1-0.2-0.1-0.4-0.2c-0.2,0-0.4-0.1-0.8-0.1h-0.2V24.2z"/>
	<path class="st6" d="M166.9,22.9h1.4V23c0,0.5-0.1,0.9-0.4,1.2c-0.3,0.3-0.7,0.4-1.2,0.4c-0.2,0-0.3,0-0.4,0
		c-0.1,0-0.3-0.1-0.4-0.1c-0.3-0.1-0.5-0.3-0.6-0.6c-0.1-0.3-0.2-0.5-0.2-0.9c0-0.3,0-0.5,0.1-0.7c0.1-0.2,0.2-0.4,0.4-0.6
		c0.1-0.1,0.3-0.2,0.5-0.3c0.2-0.1,0.4-0.1,0.6-0.1c0.3,0,0.6,0.1,0.8,0.2c0.2,0.1,0.4,0.3,0.6,0.5l-0.3,0.3
		c-0.1-0.2-0.3-0.3-0.4-0.4c-0.2-0.1-0.4-0.1-0.6-0.1c-0.4,0-0.7,0.1-0.9,0.4c-0.2,0.3-0.4,0.6-0.4,1c0,0.4,0.1,0.7,0.4,1
		c0.2,0.2,0.5,0.4,0.9,0.4c0.3,0,0.6-0.1,0.8-0.3c0.2-0.2,0.3-0.5,0.4-0.8h-0.9V22.9z"/>
	<path class="st6" d="M173.1,24.6v-3.2h1.7v0.4h-1.3v0.9h1.3V23h-1.3v1.2h1.3v0.4H173.1z"/>
</g>
<path class="st6" d="M131,14.9C131,14.9,131,14.9,131,14.9l-2-2c-0.1-0.1-0.1-0.2-0.1-0.3V8c0-1-0.8-1.8-1.8-1.8h-1.3
	c-1,0-1.8,0.8-1.8,1.8v0l-3-2.9c-0.7-0.7-1.8-0.7-2.5,0l-10,10c-0.7,0.7-0.7,1.8,0,2.5l1,1c0.7,0.7,1.8,0.7,2.5,0l7.7-7.6
	c0.2-0.1,0.4-0.1,0.5,0l7.6,7.6c0.2,0.2,0.2,0.4,0,0.5l-0.9,0.9c-0.2,0.1-0.4,0.2-0.5,0L121,15c-0.7-0.7-1.8-0.7-2.5,0l-5.1,5.1
	c-0.7,0.7-0.7,1.8,0,2.5l0.9,0.9c0.7,0.7,1.8,0.7,2.5,0l2.7-2.7c0.1-0.1,0.4-0.1,0.5,0l2.7,2.7c0.1,0.1,0.1,0.2,0.1,0.3
	c0,0.1,0,0.2-0.1,0.3l-2.7,2.7c0,0,0,0,0,0c-0.6,0-1,0.5-1,1c0,0.6,0.5,1,1,1c0.6,0,1-0.5,1-1c0,0,0,0,0,0l2.7-2.7
	c0.3-0.3,0.5-0.8,0.5-1.3c0-0.5-0.2-0.9-0.5-1.3l-2.7-2.7c-0.7-0.7-1.8-0.7-2.5,0l-2.7,2.7c-0.2,0.1-0.4,0.1-0.5,0l-0.9-0.9
	c-0.2-0.2-0.2-0.4,0-0.5l5.1-5.1c0.1-0.1,0.4-0.2,0.5,0l5.3,5.2c0.7,0.7,1.8,0.7,2.5,0l0.9-0.9c0.7-0.7,0.7-1.8,0-2.5l-7.6-7.6
	c-0.7-0.7-1.8-0.7-2.5,0l-7.7,7.6c-0.2,0.1-0.4,0.1-0.5,0l-1-1c-0.2-0.2-0.2-0.4,0-0.5l10-10c0.1-0.1,0.4-0.2,0.5,0l5.3,5.2V8
	c0-0.2,0.2-0.4,0.4-0.4h1.3c0.2,0,0.4,0.2,0.4,0.4v4.6c0,0.5,0.2,0.9,0.5,1.3l2,2c0,0,0,0,0,0c0,0.6,0.5,1,1,1c0.6,0,1-0.5,1-1
	C132,15.4,131.5,14.9,131,14.9z"/>
<g>
	<path class="st3" d="M138.9,58.4v-9.1h1.5v3.3h4.5v-3.3h1.5v9.1h-1.5V54h-4.5v4.4H138.9z"/>
	<path class="st3" d="M157.7,53.9c0,0.6-0.1,1.3-0.4,1.8c-0.2,0.6-0.6,1.1-1.1,1.5c-0.5,0.5-1,0.8-1.6,1c-0.6,0.2-1.2,0.4-1.8,0.4
		c-0.7,0-1.3-0.1-1.9-0.4c-0.6-0.2-1.1-0.6-1.6-1c-0.5-0.5-0.8-1-1.1-1.5c-0.2-0.6-0.4-1.2-0.4-1.8c0-0.6,0.1-1.3,0.4-1.8
		c0.2-0.6,0.6-1.1,1.1-1.5c0.5-0.5,1-0.8,1.6-1c0.6-0.2,1.2-0.4,1.9-0.4c0.7,0,1.3,0.1,1.9,0.4c0.6,0.2,1.1,0.6,1.6,1
		c0.5,0.5,0.8,1,1.1,1.6C157.6,52.6,157.7,53.3,157.7,53.9z M156.2,53.9c0-0.5-0.1-0.9-0.3-1.3c-0.2-0.4-0.4-0.8-0.7-1.1
		c-0.3-0.3-0.7-0.6-1.1-0.7c-0.4-0.2-0.8-0.3-1.3-0.3c-0.4,0-0.9,0.1-1.3,0.3c-0.4,0.2-0.8,0.4-1.1,0.7c-0.3,0.3-0.6,0.7-0.7,1.1
		c-0.2,0.4-0.2,0.9-0.2,1.3c0,0.5,0.1,0.9,0.2,1.3c0.2,0.4,0.4,0.8,0.7,1.1c0.3,0.3,0.7,0.6,1.1,0.7c0.4,0.2,0.8,0.3,1.3,0.3
		c0.4,0,0.9-0.1,1.3-0.3c0.4-0.2,0.8-0.4,1.1-0.7c0.3-0.3,0.6-0.7,0.7-1.1C156.1,54.8,156.2,54.3,156.2,53.9z"/>
	<path class="st3" d="M166.8,53.9c0-0.1,0-0.3-0.1-0.6c0-0.3-0.1-0.5-0.1-0.7c0,0.2-0.1,0.4-0.2,0.6c-0.1,0.2-0.2,0.4-0.3,0.6
		l-2.4,4.8l-2.4-4.9c-0.1-0.2-0.2-0.4-0.3-0.6c-0.1-0.2-0.1-0.4-0.2-0.6c0,0.2,0,0.4,0,0.6c0,0.2-0.1,0.4-0.1,0.7l-1,4.5h-1.4
		l2.1-9.5l2.7,5.7c0,0.1,0.1,0.2,0.2,0.5c0.1,0.2,0.2,0.5,0.3,0.8c0.1-0.3,0.2-0.6,0.4-1c0-0.1,0.1-0.2,0.1-0.2L167,49l2.2,9.5h-1.4
		L166.8,53.9z"/>
	<path class="st3" d="M170.3,58.4v-9.1h5.1v1.3h-3.6v2.3h3.6v1.3h-3.6v2.9h3.6v1.3H170.3z"/>
</g>
<g>
	<path class="st3" d="M139,63.4v-3.2h0.7c0.2,0,0.4,0,0.5,0c0.1,0,0.2,0.1,0.3,0.1c0.1,0.1,0.2,0.2,0.2,0.3c0.1,0.1,0.1,0.3,0.1,0.4
		c0,0.2,0,0.3-0.1,0.4c-0.1,0.1-0.2,0.2-0.4,0.2c0.2,0,0.3,0.1,0.5,0.3c0.1,0.1,0.2,0.3,0.2,0.5c0,0.1,0,0.3-0.1,0.4
		s-0.1,0.2-0.2,0.3c-0.1,0.1-0.2,0.2-0.3,0.2c-0.1,0-0.4,0.1-0.7,0.1H139z M139.3,60.5v1.1h0.3c0.3,0,0.5,0,0.6-0.1
		c0.1-0.1,0.2-0.2,0.2-0.4c0-0.2-0.1-0.4-0.2-0.4c-0.1-0.1-0.3-0.1-0.6-0.1H139.3z M139.3,61.8V63h0.3c0.2,0,0.4,0,0.4,0
		c0.1,0,0.2,0,0.2-0.1c0.1,0,0.1-0.1,0.2-0.2c0-0.1,0.1-0.2,0.1-0.3c0-0.1,0-0.2-0.1-0.3c0-0.1-0.1-0.2-0.2-0.2
		c-0.1,0-0.1-0.1-0.2-0.1c-0.1,0-0.2,0-0.3,0h-0.1H139.3z"/>
	<path class="st3" d="M145.8,63.4v-3.2h0.8c0.2,0,0.4,0,0.5,0c0.1,0,0.2,0.1,0.3,0.1c0.1,0.1,0.2,0.2,0.2,0.3
		c0.1,0.1,0.1,0.3,0.1,0.4c0,0.3-0.1,0.5-0.2,0.6c-0.1,0.1-0.4,0.2-0.7,0.2h-0.1l1.3,1.5h-0.5l-1.2-1.5h-0.1v1.5H145.8z M146.2,60.4
		v1.1h0.3c0.3,0,0.5,0,0.6-0.1c0.1-0.1,0.2-0.2,0.2-0.4c0-0.2-0.1-0.4-0.2-0.4c-0.1-0.1-0.3-0.1-0.6-0.1H146.2z"/>
	<path class="st3" d="M152.5,63.4v-3.2h0.4v3.2H152.5z"/>
	<path class="st3" d="M158,63.4v-3.2h0.6c0.5,0,0.8,0,1,0.1c0.2,0,0.4,0.1,0.5,0.2c0.2,0.1,0.3,0.3,0.4,0.5c0.1,0.2,0.1,0.5,0.1,0.8
		c0,0.3,0,0.5-0.1,0.8c-0.1,0.2-0.2,0.4-0.4,0.5c-0.1,0.1-0.3,0.2-0.5,0.2c-0.2,0-0.5,0.1-0.9,0.1h-0.1H158z M158.4,63h0.2
		c0.4,0,0.7,0,0.8-0.1c0.2,0,0.3-0.1,0.4-0.2c0.1-0.1,0.2-0.3,0.3-0.4c0.1-0.2,0.1-0.4,0.1-0.6c0-0.2,0-0.4-0.1-0.6
		c-0.1-0.2-0.2-0.3-0.3-0.4c-0.1-0.1-0.2-0.1-0.4-0.2c-0.2,0-0.4-0.1-0.8-0.1h-0.2V63z"/>
	<path class="st3" d="M167.4,61.7h1.4v0.1c0,0.5-0.1,0.9-0.4,1.2c-0.3,0.3-0.7,0.4-1.2,0.4c-0.2,0-0.3,0-0.4,0
		c-0.1,0-0.3-0.1-0.4-0.1c-0.3-0.1-0.5-0.3-0.6-0.6c-0.1-0.3-0.2-0.5-0.2-0.9c0-0.3,0-0.5,0.1-0.7c0.1-0.2,0.2-0.4,0.4-0.6
		c0.1-0.1,0.3-0.2,0.5-0.3c0.2-0.1,0.4-0.1,0.6-0.1c0.3,0,0.6,0.1,0.8,0.2c0.2,0.1,0.4,0.3,0.6,0.5l-0.3,0.3
		c-0.1-0.2-0.3-0.3-0.4-0.4c-0.2-0.1-0.4-0.1-0.6-0.1c-0.4,0-0.7,0.1-0.9,0.4c-0.2,0.3-0.4,0.6-0.4,1c0,0.4,0.1,0.7,0.4,1
		s0.5,0.4,0.9,0.4c0.3,0,0.6-0.1,0.8-0.3c0.2-0.2,0.3-0.5,0.4-0.8h-0.9V61.7z"/>
	<path class="st3" d="M173.6,63.4v-3.2h1.7v0.4H174v0.9h1.3v0.4H174V63h1.3v0.4H173.6z"/>
</g>
<g>
	<path class="st4" d="M44.5,153v-10.2h1.7v3.8h5v-3.8h1.7V153h-1.7V148h-5v4.9H44.5z"/>
	<path class="st4" d="M65.6,147.9c0,0.7-0.1,1.4-0.4,2.1c-0.3,0.6-0.7,1.2-1.2,1.7c-0.5,0.5-1.1,0.9-1.8,1.2
		c-0.7,0.3-1.3,0.4-2.1,0.4c-0.7,0-1.4-0.1-2.1-0.4c-0.7-0.3-1.3-0.7-1.8-1.2c-0.5-0.5-0.9-1.1-1.2-1.7c-0.3-0.6-0.4-1.3-0.4-2.1
		c0-0.7,0.1-1.4,0.4-2.1c0.3-0.6,0.7-1.2,1.2-1.7c0.5-0.5,1.1-0.9,1.8-1.2c0.7-0.3,1.4-0.4,2.1-0.4c0.7,0,1.4,0.1,2.1,0.4
		c0.7,0.3,1.2,0.6,1.8,1.2c0.5,0.5,0.9,1.1,1.2,1.7C65.5,146.5,65.6,147.2,65.6,147.9z M63.9,147.9c0-0.5-0.1-1-0.3-1.5
		c-0.2-0.5-0.5-0.9-0.8-1.2c-0.3-0.4-0.7-0.6-1.2-0.8c-0.5-0.2-0.9-0.3-1.4-0.3c-0.5,0-1,0.1-1.4,0.3c-0.5,0.2-0.9,0.5-1.2,0.8
		c-0.4,0.4-0.6,0.8-0.8,1.2c-0.2,0.5-0.3,1-0.3,1.5c0,0.5,0.1,1,0.3,1.5c0.2,0.5,0.5,0.9,0.8,1.2c0.4,0.4,0.8,0.6,1.2,0.8
		c0.4,0.2,0.9,0.3,1.4,0.3c0.5,0,1-0.1,1.4-0.3c0.4-0.2,0.8-0.5,1.2-0.8c0.4-0.4,0.6-0.8,0.8-1.2C63.8,148.9,63.9,148.4,63.9,147.9z
		"/>
	<path class="st4" d="M75.8,147.9c0-0.1,0-0.3-0.1-0.7c0-0.3-0.1-0.5-0.1-0.7c0,0.2-0.1,0.5-0.2,0.7c-0.1,0.2-0.2,0.5-0.3,0.7
		l-2.7,5.4l-2.7-5.5c-0.1-0.2-0.2-0.4-0.3-0.7c-0.1-0.2-0.2-0.4-0.2-0.6c0,0.2,0,0.4-0.1,0.7c0,0.2-0.1,0.5-0.1,0.7l-1.1,5h-1.5
		l2.4-10.6l3,6.4c0,0.1,0.1,0.3,0.2,0.5c0.1,0.2,0.2,0.5,0.3,0.9c0.1-0.3,0.3-0.7,0.5-1.1c0.1-0.1,0.1-0.2,0.1-0.3l2.9-6.4l2.5,10.6
		H77L75.8,147.9z"/>
	<path class="st4" d="M79.8,153v-10.2h5.7v1.4h-4v2.6h4v1.5h-4v3.3h4v1.5H79.8z"/>
</g>
<g>
	<path class="st4" d="M44.6,158.5v-3.6h0.8c0.3,0,0.5,0,0.6,0c0.1,0,0.2,0.1,0.3,0.1c0.1,0.1,0.2,0.2,0.3,0.3
		c0.1,0.1,0.1,0.3,0.1,0.4c0,0.2,0,0.4-0.1,0.5c-0.1,0.1-0.2,0.2-0.4,0.3c0.2,0,0.4,0.1,0.5,0.3c0.1,0.2,0.2,0.4,0.2,0.6
		c0,0.1,0,0.3-0.1,0.4c-0.1,0.1-0.1,0.2-0.2,0.3c-0.1,0.1-0.2,0.2-0.4,0.2c-0.2,0-0.4,0.1-0.8,0.1H44.6z M45,155.2v1.2h0.3
		c0.3,0,0.5,0,0.7-0.1c0.1-0.1,0.2-0.2,0.2-0.5c0-0.2-0.1-0.4-0.2-0.5c-0.1-0.1-0.3-0.1-0.7-0.1H45z M45,156.8v1.3h0.3
		c0.2,0,0.4,0,0.5,0c0.1,0,0.2,0,0.2-0.1c0.1-0.1,0.1-0.1,0.2-0.2c0-0.1,0.1-0.2,0.1-0.3c0-0.1,0-0.2-0.1-0.3
		c-0.1-0.1-0.1-0.2-0.2-0.2c-0.1,0-0.1-0.1-0.2-0.1c-0.1,0-0.2,0-0.4,0h-0.1H45z"/>
	<path class="st4" d="M52.3,158.5v-3.6h0.9c0.2,0,0.4,0,0.5,0c0.1,0,0.2,0.1,0.3,0.1c0.1,0.1,0.2,0.2,0.3,0.3
		c0.1,0.1,0.1,0.3,0.1,0.5c0,0.3-0.1,0.5-0.3,0.7c-0.2,0.2-0.4,0.2-0.7,0.2h-0.1l1.4,1.7h-0.6l-1.3-1.7h-0.1v1.7H52.3z M52.7,155.2
		v1.2H53c0.3,0,0.6,0,0.7-0.1c0.1-0.1,0.2-0.2,0.2-0.5c0-0.2-0.1-0.4-0.2-0.5c-0.1-0.1-0.3-0.1-0.7-0.1H52.7z"/>
	<path class="st4" d="M59.8,158.5v-3.6h0.4v3.6H59.8z"/>
	<path class="st4" d="M66,158.5v-3.6h0.7c0.5,0,0.9,0,1.1,0.1c0.2,0.1,0.4,0.1,0.6,0.3c0.2,0.2,0.4,0.4,0.5,0.6
		c0.1,0.2,0.2,0.5,0.2,0.9c0,0.3-0.1,0.6-0.2,0.9c-0.1,0.2-0.3,0.5-0.5,0.6c-0.2,0.1-0.3,0.2-0.5,0.3c-0.2,0.1-0.5,0.1-1,0.1h-0.2
		H66z M66.4,158.1h0.3c0.5,0,0.8,0,0.9-0.1c0.2,0,0.3-0.1,0.4-0.2c0.2-0.1,0.3-0.3,0.3-0.5c0.1-0.2,0.1-0.4,0.1-0.7
		c0-0.3,0-0.5-0.1-0.7c-0.1-0.2-0.2-0.4-0.3-0.5c-0.1-0.1-0.3-0.2-0.4-0.2c-0.2,0-0.5-0.1-0.9-0.1h-0.3V158.1z"/>
	<path class="st4" d="M76.5,156.6H78v0.1c0,0.6-0.2,1-0.5,1.4c-0.3,0.3-0.8,0.5-1.3,0.5c-0.2,0-0.3,0-0.5-0.1
		c-0.2,0-0.3-0.1-0.4-0.2c-0.3-0.2-0.5-0.4-0.7-0.7c-0.2-0.3-0.2-0.6-0.2-1c0-0.3,0-0.6,0.1-0.8c0.1-0.2,0.2-0.5,0.4-0.6
		c0.2-0.2,0.4-0.3,0.6-0.4c0.2-0.1,0.5-0.1,0.7-0.1c0.4,0,0.7,0.1,0.9,0.2c0.3,0.1,0.5,0.3,0.6,0.6l-0.4,0.3
		c-0.1-0.2-0.3-0.4-0.5-0.5c-0.2-0.1-0.4-0.2-0.7-0.2c-0.4,0-0.8,0.1-1,0.4c-0.3,0.3-0.4,0.7-0.4,1.1c0,0.4,0.1,0.8,0.4,1.1
		c0.3,0.3,0.6,0.4,1,0.4c0.4,0,0.7-0.1,0.9-0.3c0.2-0.2,0.4-0.5,0.4-0.9h-1V156.6z"/>
	<path class="st4" d="M83.5,158.5v-3.6h1.9v0.4h-1.5v1h1.5v0.4h-1.5v1.4h1.5v0.4H83.5z"/>
</g>
<path class="st4" d="M154.9,131.5C154.9,131.5,154.9,131.6,154.9,131.5C154.9,131.6,154.9,131.5,154.9,131.5z"/>
<path class="st3" d="M157.9,122.4C157.9,122.4,157.9,122.4,157.9,122.4l-2.3-2.3c-0.1-0.1-0.1-0.2-0.1-0.3v-5.2c0-1.1-0.9-2-2-2H152
	c-1.1,0-2,0.9-2,2v0l-3.4-3.2c-0.8-0.8-2-0.7-2.8,0l-11.3,11.3c-0.4,0.4-0.6,0.9-0.6,1.4c0,0.5,0.2,1,0.6,1.4l1.1,1.1
	c0.8,0.8,2,0.8,2.8,0l8.7-8.6c0.2-0.2,0.4-0.2,0.6,0l8.5,8.5c0.2,0.2,0.2,0.5,0,0.6l-1.1,1.1c-0.2,0.2-0.4,0.2-0.6,0l-6-5.8
	c-0.8-0.8-2.1-0.8-2.8,0l-5.8,5.8c-0.8,0.8-0.8,2.1,0,2.8l1.1,1.1c0.8,0.8,2,0.8,2.8,0l3.1-3.1c0.2-0.2,0.4-0.2,0.6,0l3.1,3
	c0.1,0.1,0.1,0.2,0.1,0.3c0,0.1,0,0.2-0.1,0.3l-3.1,3.1c0,0,0,0,0,0c-0.6,0-1.1,0.5-1.1,1.1c0,0.6,0.5,1.1,1.1,1.1
	c0.6,0,1.1-0.5,1.1-1.1c0,0,0,0,0,0l3.1-3.1c0.4-0.4,0.6-0.9,0.6-1.4c0-0.5-0.2-1-0.6-1.4l-3.1-3c-0.8-0.8-2-0.8-2.8,0l-3.1,3.1
	c-0.2,0.2-0.4,0.2-0.6,0l-1.1-1.1c-0.2-0.2-0.2-0.4,0-0.6l5.8-5.8c0.2-0.2,0.4-0.2,0.6,0l6,5.8c0.8,0.8,2,0.8,2.8,0l1.1-1.1
	c0.8-0.8,0.8-2.1,0-2.8l-8.5-8.5c-0.8-0.8-2-0.8-2.8,0l-8.7,8.6c-0.2,0.2-0.5,0.2-0.6,0l-1.1-1.1c-0.1-0.1-0.1-0.2-0.1-0.3
	s0-0.2,0.1-0.3l11.3-11.3c0.2-0.2,0.4-0.2,0.6,0l6,5.8v-3.7c0-0.2,0.2-0.4,0.4-0.4h1.4c0.2,0,0.4,0.2,0.4,0.4v5.2
	c0,0.5,0.2,1,0.6,1.4l2.3,2.3c0,0,0,0,0,0c0,0.6,0.5,1.1,1.1,1.1c0.6,0,1.1-0.5,1.1-1.1C159,122.9,158.5,122.4,157.9,122.4z"/>
<g>
	<path class="st3" d="M125,153v-10.2h1.7v3.8h5v-3.8h1.7V153h-1.7V148h-5v4.9H125z"/>
	<path class="st3" d="M146.1,147.9c0,0.7-0.1,1.4-0.4,2.1c-0.3,0.6-0.7,1.2-1.2,1.7c-0.5,0.5-1.1,0.9-1.8,1.2
		c-0.7,0.3-1.3,0.4-2.1,0.4c-0.7,0-1.4-0.1-2.1-0.4c-0.7-0.3-1.3-0.7-1.8-1.2c-0.5-0.5-0.9-1.1-1.2-1.7c-0.3-0.6-0.4-1.3-0.4-2.1
		c0-0.7,0.1-1.4,0.4-2.1c0.3-0.6,0.7-1.2,1.2-1.7c0.5-0.5,1.1-0.9,1.8-1.2c0.7-0.3,1.4-0.4,2.1-0.4c0.7,0,1.4,0.1,2.1,0.4
		c0.7,0.3,1.2,0.6,1.8,1.2c0.5,0.5,0.9,1.1,1.2,1.7C146,146.5,146.1,147.2,146.1,147.9z M144.4,147.9c0-0.5-0.1-1-0.3-1.5
		c-0.2-0.5-0.5-0.9-0.8-1.2c-0.3-0.4-0.7-0.6-1.2-0.8c-0.5-0.2-0.9-0.3-1.4-0.3c-0.5,0-1,0.1-1.4,0.3c-0.5,0.2-0.9,0.5-1.2,0.8
		c-0.4,0.4-0.6,0.8-0.8,1.2c-0.2,0.5-0.3,1-0.3,1.5c0,0.5,0.1,1,0.3,1.5c0.2,0.5,0.5,0.9,0.8,1.2c0.4,0.4,0.8,0.6,1.2,0.8
		c0.4,0.2,0.9,0.3,1.4,0.3c0.5,0,1-0.1,1.4-0.3c0.4-0.2,0.8-0.5,1.2-0.8c0.4-0.4,0.6-0.8,0.8-1.2
		C144.3,148.9,144.4,148.4,144.4,147.9z"/>
	<path class="st3" d="M156.3,147.9c0-0.1,0-0.3-0.1-0.7c0-0.3-0.1-0.5-0.1-0.7c0,0.2-0.1,0.5-0.2,0.7c-0.1,0.2-0.2,0.5-0.3,0.7
		l-2.7,5.4l-2.7-5.5c-0.1-0.2-0.2-0.4-0.3-0.7c-0.1-0.2-0.2-0.4-0.2-0.6c0,0.2,0,0.4-0.1,0.7c0,0.2-0.1,0.5-0.1,0.7l-1.1,5H147
		l2.4-10.6l3,6.4c0,0.1,0.1,0.3,0.2,0.5s0.2,0.5,0.3,0.9c0.1-0.3,0.3-0.7,0.5-1.1c0.1-0.1,0.1-0.2,0.1-0.3l2.9-6.4L159,153h-1.5
		L156.3,147.9z"/>
	<path class="st3" d="M160.3,153v-10.2h5.7v1.4h-4v2.6h4v1.5h-4v3.3h4v1.5H160.3z"/>
</g>
<g>
	<path class="st3" d="M125,158.5v-3.6h0.8c0.3,0,0.5,0,0.6,0c0.1,0,0.2,0.1,0.3,0.1c0.1,0.1,0.2,0.2,0.3,0.3
		c0.1,0.1,0.1,0.3,0.1,0.4c0,0.2,0,0.4-0.1,0.5c-0.1,0.1-0.2,0.2-0.4,0.3c0.2,0,0.4,0.1,0.5,0.3c0.1,0.2,0.2,0.4,0.2,0.6
		c0,0.1,0,0.3-0.1,0.4c-0.1,0.1-0.1,0.2-0.2,0.3c-0.1,0.1-0.2,0.2-0.4,0.2c-0.2,0-0.4,0.1-0.8,0.1H125z M125.5,155.2v1.2h0.3
		c0.3,0,0.5,0,0.7-0.1c0.1-0.1,0.2-0.2,0.2-0.5c0-0.2-0.1-0.4-0.2-0.5c-0.1-0.1-0.3-0.1-0.7-0.1H125.5z M125.5,156.8v1.3h0.3
		c0.2,0,0.4,0,0.5,0c0.1,0,0.2,0,0.2-0.1c0.1-0.1,0.1-0.1,0.2-0.2c0-0.1,0.1-0.2,0.1-0.3c0-0.1,0-0.2-0.1-0.3
		c-0.1-0.1-0.1-0.2-0.2-0.2c-0.1,0-0.1-0.1-0.2-0.1c-0.1,0-0.2,0-0.4,0h-0.1H125.5z"/>
	<path class="st3" d="M132.7,158.5v-3.6h0.9c0.2,0,0.4,0,0.5,0c0.1,0,0.2,0.1,0.3,0.1c0.1,0.1,0.2,0.2,0.3,0.3
		c0.1,0.1,0.1,0.3,0.1,0.5c0,0.3-0.1,0.5-0.3,0.7c-0.2,0.2-0.4,0.2-0.7,0.2h-0.1l1.4,1.7h-0.6l-1.3-1.7h-0.1v1.7H132.7z
		 M133.2,155.2v1.2h0.3c0.3,0,0.6,0,0.7-0.1c0.1-0.1,0.2-0.2,0.2-0.5c0-0.2-0.1-0.4-0.2-0.5c-0.1-0.1-0.3-0.1-0.7-0.1H133.2z"/>
	<path class="st3" d="M140.3,158.5v-3.6h0.4v3.6H140.3z"/>
	<path class="st3" d="M146.4,158.5v-3.6h0.7c0.5,0,0.9,0,1.1,0.1s0.4,0.1,0.6,0.3c0.2,0.2,0.4,0.4,0.5,0.6c0.1,0.2,0.2,0.5,0.2,0.9
		c0,0.3-0.1,0.6-0.2,0.9c-0.1,0.2-0.3,0.5-0.5,0.6c-0.2,0.1-0.3,0.2-0.5,0.3c-0.2,0.1-0.5,0.1-1,0.1h-0.2H146.4z M146.8,158.1h0.3
		c0.5,0,0.8,0,0.9-0.1c0.2,0,0.3-0.1,0.4-0.2c0.2-0.1,0.3-0.3,0.3-0.5c0.1-0.2,0.1-0.4,0.1-0.7c0-0.3,0-0.5-0.1-0.7
		c-0.1-0.2-0.2-0.4-0.3-0.5c-0.1-0.1-0.3-0.2-0.4-0.2c-0.2,0-0.5-0.1-0.9-0.1h-0.3V158.1z"/>
	<path class="st3" d="M157,156.6h1.5v0.1c0,0.6-0.2,1-0.5,1.4c-0.3,0.3-0.8,0.5-1.3,0.5c-0.2,0-0.3,0-0.5-0.1
		c-0.2,0-0.3-0.1-0.4-0.2c-0.3-0.2-0.5-0.4-0.7-0.7c-0.2-0.3-0.2-0.6-0.2-1c0-0.3,0-0.6,0.1-0.8c0.1-0.2,0.2-0.5,0.4-0.6
		c0.2-0.2,0.4-0.3,0.6-0.4c0.2-0.1,0.5-0.1,0.7-0.1c0.4,0,0.7,0.1,0.9,0.2c0.3,0.1,0.5,0.3,0.6,0.6l-0.4,0.3
		c-0.1-0.2-0.3-0.4-0.5-0.5c-0.2-0.1-0.4-0.2-0.7-0.2c-0.4,0-0.8,0.1-1,0.4c-0.3,0.3-0.4,0.7-0.4,1.1c0,0.4,0.1,0.8,0.4,1.1
		c0.3,0.3,0.6,0.4,1,0.4c0.4,0,0.7-0.1,0.9-0.3c0.2-0.2,0.4-0.5,0.4-0.9h-1V156.6z"/>
	<path class="st3" d="M163.9,158.5v-3.6h1.9v0.4h-1.5v1h1.5v0.4h-1.5v1.4h1.5v0.4H163.9z"/>
</g>
<path class="st0" d="M235.5,131.5C235.5,131.5,235.5,131.6,235.5,131.5C235.5,131.6,235.5,131.5,235.5,131.5z"/>
<path class="st0" d="M238.5,122.4C238.4,122.4,238.4,122.4,238.5,122.4l-2.3-2.3c-0.1-0.1-0.1-0.2-0.1-0.3v-5.2c0-1.1-0.9-2-2-2
	h-1.4c-1.1,0-2,0.9-2,2v0l-3.4-3.2c-0.8-0.8-2-0.7-2.8,0l-11.3,11.3c-0.4,0.4-0.6,0.9-0.6,1.4c0,0.5,0.2,1,0.6,1.4l1.1,1.1
	c0.8,0.8,2,0.8,2.8,0l8.7-8.6c0.2-0.2,0.4-0.2,0.6,0l8.5,8.5c0.2,0.2,0.2,0.5,0,0.6l-1.1,1.1c-0.2,0.2-0.4,0.2-0.6,0l-6-5.8
	c-0.8-0.8-2.1-0.8-2.8,0l-5.8,5.8c-0.8,0.8-0.8,2.1,0,2.8l1.1,1.1c0.8,0.8,2,0.8,2.8,0l3.1-3.1c0.2-0.2,0.4-0.2,0.6,0l3.1,3
	c0.1,0.1,0.1,0.2,0.1,0.3c0,0.1,0,0.2-0.1,0.3l-3.1,3.1c0,0,0,0,0,0c-0.6,0-1.1,0.5-1.1,1.1c0,0.6,0.5,1.1,1.1,1.1
	c0.6,0,1.1-0.5,1.1-1.1c0,0,0,0,0,0l3.1-3.1c0.4-0.4,0.6-0.9,0.6-1.4c0-0.5-0.2-1-0.6-1.4l-3.1-3c-0.8-0.8-2-0.8-2.8,0l-3.1,3.1
	c-0.2,0.2-0.4,0.2-0.6,0l-1.1-1.1c-0.2-0.2-0.2-0.4,0-0.6l5.8-5.8c0.2-0.2,0.4-0.2,0.6,0l6,5.8c0.8,0.8,2,0.8,2.8,0l1.1-1.1
	c0.8-0.8,0.8-2.1,0-2.8l-8.5-8.5c-0.8-0.8-2-0.8-2.8,0l-8.7,8.6c-0.2,0.2-0.5,0.2-0.6,0l-1.1-1.1c-0.1-0.1-0.1-0.2-0.1-0.3
	s0-0.2,0.1-0.3l11.3-11.3c0.2-0.2,0.4-0.2,0.6,0l6,5.8v-3.7c0-0.2,0.2-0.4,0.4-0.4h1.4c0.2,0,0.4,0.2,0.4,0.4v5.2
	c0,0.5,0.2,1,0.6,1.4l2.3,2.3c0,0,0,0,0,0c0,0.6,0.5,1.1,1.1,1.1s1.1-0.5,1.1-1.1C239.6,122.9,239.1,122.4,238.5,122.4z"/>
<g>
	<path class="st0" d="M205.6,153v-10.2h1.7v3.8h5v-3.8h1.7V153h-1.7V148h-5v4.9H205.6z"/>
	<path class="st0" d="M226.7,147.9c0,0.7-0.1,1.4-0.4,2.1c-0.3,0.6-0.7,1.2-1.2,1.7c-0.5,0.5-1.1,0.9-1.8,1.2
		c-0.7,0.3-1.3,0.4-2.1,0.4c-0.7,0-1.4-0.1-2.1-0.4c-0.7-0.3-1.3-0.7-1.8-1.2c-0.5-0.5-0.9-1.1-1.2-1.7c-0.3-0.6-0.4-1.3-0.4-2.1
		c0-0.7,0.1-1.4,0.4-2.1c0.3-0.6,0.7-1.2,1.2-1.7c0.5-0.5,1.1-0.9,1.8-1.2c0.7-0.3,1.4-0.4,2.1-0.4c0.7,0,1.4,0.1,2.1,0.4
		c0.7,0.3,1.2,0.6,1.8,1.2c0.5,0.5,0.9,1.1,1.2,1.7C226.5,146.5,226.7,147.2,226.7,147.9z M224.9,147.9c0-0.5-0.1-1-0.3-1.5
		c-0.2-0.5-0.5-0.9-0.8-1.2c-0.3-0.4-0.7-0.6-1.2-0.8c-0.5-0.2-0.9-0.3-1.4-0.3c-0.5,0-1,0.1-1.4,0.3c-0.5,0.2-0.9,0.5-1.2,0.8
		c-0.4,0.4-0.6,0.8-0.8,1.2c-0.2,0.5-0.3,1-0.3,1.5c0,0.5,0.1,1,0.3,1.5c0.2,0.5,0.5,0.9,0.8,1.2c0.4,0.4,0.8,0.6,1.2,0.8
		c0.4,0.2,0.9,0.3,1.4,0.3c0.5,0,1-0.1,1.4-0.3c0.4-0.2,0.8-0.5,1.2-0.8c0.4-0.4,0.6-0.8,0.8-1.2
		C224.8,148.9,224.9,148.4,224.9,147.9z"/>
	<path class="st0" d="M236.9,147.9c0-0.1,0-0.3-0.1-0.7c0-0.3-0.1-0.5-0.1-0.7c0,0.2-0.1,0.5-0.2,0.7c-0.1,0.2-0.2,0.5-0.3,0.7
		l-2.7,5.4l-2.7-5.5c-0.1-0.2-0.2-0.4-0.3-0.7c-0.1-0.2-0.2-0.4-0.2-0.6c0,0.2,0,0.4-0.1,0.7c0,0.2-0.1,0.5-0.1,0.7l-1.1,5h-1.5
		l2.4-10.6l3,6.4c0,0.1,0.1,0.3,0.2,0.5c0.1,0.2,0.2,0.5,0.3,0.9c0.1-0.3,0.3-0.7,0.5-1.1c0.1-0.1,0.1-0.2,0.1-0.3l2.9-6.4l2.5,10.6
		H238L236.9,147.9z"/>
	<path class="st0" d="M240.8,153v-10.2h5.7v1.4h-4v2.6h4v1.5h-4v3.3h4v1.5H240.8z"/>
</g>
<g>
	<path class="st0" d="M205.6,158.5v-3.6h0.8c0.3,0,0.5,0,0.6,0c0.1,0,0.2,0.1,0.3,0.1c0.1,0.1,0.2,0.2,0.3,0.3
		c0.1,0.1,0.1,0.3,0.1,0.4c0,0.2,0,0.4-0.1,0.5c-0.1,0.1-0.2,0.2-0.4,0.3c0.2,0,0.4,0.1,0.5,0.3c0.1,0.2,0.2,0.4,0.2,0.6
		c0,0.1,0,0.3-0.1,0.4c-0.1,0.1-0.1,0.2-0.2,0.3c-0.1,0.1-0.2,0.2-0.4,0.2c-0.2,0-0.4,0.1-0.8,0.1H205.6z M206,155.2v1.2h0.3
		c0.3,0,0.5,0,0.7-0.1c0.1-0.1,0.2-0.2,0.2-0.5c0-0.2-0.1-0.4-0.2-0.5c-0.1-0.1-0.3-0.1-0.7-0.1H206z M206,156.8v1.3h0.3
		c0.2,0,0.4,0,0.5,0c0.1,0,0.2,0,0.2-0.1c0.1-0.1,0.1-0.1,0.2-0.2c0-0.1,0.1-0.2,0.1-0.3c0-0.1,0-0.2-0.1-0.3
		c-0.1-0.1-0.1-0.2-0.2-0.2c-0.1,0-0.1-0.1-0.2-0.1c-0.1,0-0.2,0-0.4,0h-0.1H206z"/>
	<path class="st0" d="M213.3,158.5v-3.6h0.9c0.2,0,0.4,0,0.5,0c0.1,0,0.2,0.1,0.3,0.1c0.1,0.1,0.2,0.2,0.3,0.3
		c0.1,0.1,0.1,0.3,0.1,0.5c0,0.3-0.1,0.5-0.3,0.7c-0.2,0.2-0.4,0.2-0.7,0.2h-0.1l1.4,1.7h-0.6l-1.3-1.7h-0.1v1.7H213.3z
		 M213.7,155.2v1.2h0.3c0.3,0,0.6,0,0.7-0.1c0.1-0.1,0.2-0.2,0.2-0.5c0-0.2-0.1-0.4-0.2-0.5c-0.1-0.1-0.3-0.1-0.7-0.1H213.7z"/>
	<path class="st0" d="M220.9,158.5v-3.6h0.4v3.6H220.9z"/>
	<path class="st0" d="M227,158.5v-3.6h0.7c0.5,0,0.9,0,1.1,0.1c0.2,0.1,0.4,0.1,0.6,0.3c0.2,0.2,0.4,0.4,0.5,0.6
		c0.1,0.2,0.2,0.5,0.2,0.9c0,0.3-0.1,0.6-0.2,0.9c-0.1,0.2-0.3,0.5-0.5,0.6c-0.2,0.1-0.3,0.2-0.5,0.3c-0.2,0.1-0.5,0.1-1,0.1h-0.2
		H227z M227.4,158.1h0.3c0.5,0,0.8,0,0.9-0.1c0.2,0,0.3-0.1,0.4-0.2c0.2-0.1,0.3-0.3,0.3-0.5c0.1-0.2,0.1-0.4,0.1-0.7
		c0-0.3,0-0.5-0.1-0.7c-0.1-0.2-0.2-0.4-0.3-0.5c-0.1-0.1-0.3-0.2-0.4-0.2c-0.2,0-0.5-0.1-0.9-0.1h-0.3V158.1z"/>
	<path class="st0" d="M237.5,156.6h1.5v0.1c0,0.6-0.2,1-0.5,1.4c-0.3,0.3-0.8,0.5-1.3,0.5c-0.2,0-0.3,0-0.5-0.1
		c-0.2,0-0.3-0.1-0.4-0.2c-0.3-0.2-0.5-0.4-0.7-0.7c-0.2-0.3-0.2-0.6-0.2-1c0-0.3,0-0.6,0.1-0.8c0.1-0.2,0.2-0.5,0.4-0.6
		c0.2-0.2,0.4-0.3,0.6-0.4c0.2-0.1,0.5-0.1,0.7-0.1c0.4,0,0.7,0.1,0.9,0.2c0.3,0.1,0.5,0.3,0.6,0.6l-0.4,0.3
		c-0.1-0.2-0.3-0.4-0.5-0.5s-0.4-0.2-0.7-0.2c-0.4,0-0.8,0.1-1,0.4c-0.3,0.3-0.4,0.7-0.4,1.1c0,0.4,0.1,0.8,0.4,1.1
		c0.3,0.3,0.6,0.4,1,0.4c0.4,0,0.7-0.1,0.9-0.3c0.2-0.2,0.4-0.5,0.4-0.9h-1V156.6z"/>
	<path class="st0" d="M244.5,158.5v-3.6h1.9v0.4h-1.5v1h1.5v0.4h-1.5v1.4h1.5v0.4H244.5z"/>
</g>
<path class="st3" d="M131.5,53.7C131.5,53.7,131.5,53.7,131.5,53.7l-2-2c-0.1-0.1-0.1-0.2-0.1-0.3v-4.6c0-1-0.8-1.8-1.8-1.8h-1.3
	c-1,0-1.8,0.8-1.8,1.8v0l-3-2.9c-0.7-0.7-1.8-0.7-2.5,0l-10,10c-0.7,0.7-0.7,1.8,0,2.5l1,1c0.7,0.7,1.8,0.7,2.5,0l7.7-7.6
	c0.2-0.1,0.4-0.1,0.5,0l7.6,7.6c0.2,0.2,0.2,0.4,0,0.5l-0.9,0.9c-0.2,0.1-0.4,0.2-0.5,0l-5.3-5.2c-0.7-0.7-1.8-0.7-2.5,0l-5.1,5.1
	c-0.7,0.7-0.7,1.8,0,2.5l0.9,0.9c0.7,0.7,1.8,0.7,2.5,0l2.7-2.7c0.1-0.1,0.4-0.1,0.5,0l2.7,2.7c0.1,0.1,0.1,0.2,0.1,0.3
	c0,0.1,0,0.2-0.1,0.3l-2.7,2.7c0,0,0,0,0,0c-0.6,0-1,0.5-1,1c0,0.6,0.5,1,1,1c0.6,0,1-0.5,1-1c0,0,0,0,0,0l2.7-2.7
	c0.3-0.3,0.5-0.8,0.5-1.3c0-0.5-0.2-0.9-0.5-1.3l-2.7-2.7c-0.7-0.7-1.8-0.7-2.5,0l-2.7,2.7c-0.2,0.1-0.4,0.1-0.5,0l-0.9-0.9
	c-0.2-0.2-0.2-0.4,0-0.5l5.1-5.1c0.1-0.1,0.4-0.2,0.5,0l5.3,5.2c0.7,0.7,1.8,0.7,2.5,0l0.9-0.9c0.7-0.7,0.7-1.8,0-2.5l-7.6-7.6
	c-0.7-0.7-1.8-0.7-2.5,0l-7.7,7.6c-0.2,0.1-0.4,0.1-0.5,0l-1-1c-0.2-0.2-0.2-0.4,0-0.5l10-10c0.1-0.1,0.4-0.2,0.5,0l5.3,5.2v-3.3
	c0-0.2,0.2-0.4,0.4-0.4h1.3c0.2,0,0.4,0.2,0.4,0.4v4.6c0,0.5,0.2,0.9,0.5,1.3l2,2c0,0,0,0,0,0c0,0.6,0.5,1,1,1s1-0.5,1-1
	C132.5,54.2,132.1,53.7,131.5,53.7z"/>
<g>
	<path class="st0" d="M138.7,94v-9.1h1.5v3.3h4.5v-3.3h1.5V94h-1.5v-4.4h-4.5V94H138.7z"/>
	<path class="st0" d="M157.5,89.4c0,0.6-0.1,1.3-0.4,1.8c-0.2,0.6-0.6,1.1-1.1,1.5c-0.5,0.5-1,0.8-1.6,1c-0.6,0.2-1.2,0.4-1.8,0.4
		c-0.7,0-1.3-0.1-1.9-0.4c-0.6-0.2-1.1-0.6-1.6-1c-0.5-0.5-0.8-1-1.1-1.5c-0.2-0.6-0.4-1.2-0.4-1.8c0-0.6,0.1-1.3,0.4-1.8
		c0.2-0.6,0.6-1.1,1.1-1.5c0.5-0.5,1-0.8,1.6-1c0.6-0.2,1.2-0.4,1.9-0.4c0.7,0,1.3,0.1,1.9,0.4c0.6,0.2,1.1,0.6,1.6,1
		c0.5,0.5,0.8,1,1.1,1.6C157.4,88.2,157.5,88.8,157.5,89.4z M156,89.4c0-0.5-0.1-0.9-0.3-1.3c-0.2-0.4-0.4-0.8-0.7-1.1
		c-0.3-0.3-0.7-0.6-1.1-0.7c-0.4-0.2-0.8-0.3-1.3-0.3c-0.4,0-0.9,0.1-1.3,0.3c-0.4,0.2-0.8,0.4-1.1,0.7c-0.3,0.3-0.6,0.7-0.7,1.1
		c-0.2,0.4-0.2,0.9-0.2,1.3c0,0.5,0.1,0.9,0.2,1.3c0.2,0.4,0.4,0.8,0.7,1.1c0.3,0.3,0.7,0.6,1.1,0.7c0.4,0.2,0.8,0.3,1.3,0.3
		c0.4,0,0.9-0.1,1.3-0.3c0.4-0.2,0.8-0.4,1.1-0.7c0.3-0.3,0.6-0.7,0.7-1.1C155.9,90.3,156,89.9,156,89.4z"/>
	<path class="st0" d="M166.6,89.5c0-0.1,0-0.3-0.1-0.6c0-0.3-0.1-0.5-0.1-0.7c0,0.2-0.1,0.4-0.2,0.6c-0.1,0.2-0.2,0.4-0.3,0.6
		l-2.4,4.8l-2.4-4.9c-0.1-0.2-0.2-0.4-0.3-0.6c-0.1-0.2-0.1-0.4-0.2-0.6c0,0.2,0,0.4,0,0.6c0,0.2-0.1,0.4-0.1,0.7l-1,4.5h-1.4
		l2.1-9.5l2.7,5.7c0,0.1,0.1,0.2,0.2,0.5s0.2,0.5,0.3,0.8c0.1-0.3,0.2-0.6,0.4-1c0-0.1,0.1-0.2,0.1-0.2l2.6-5.7L169,94h-1.4
		L166.6,89.5z"/>
	<path class="st0" d="M170.2,94v-9.1h5.1v1.3h-3.6v2.3h3.6v1.3h-3.6v2.9h3.6V94H170.2z"/>
</g>
<g>
	<path class="st0" d="M138.8,98.9v-3.2h0.7c0.2,0,0.4,0,0.5,0c0.1,0,0.2,0.1,0.3,0.1c0.1,0.1,0.2,0.2,0.2,0.3
		c0.1,0.1,0.1,0.3,0.1,0.4c0,0.2,0,0.3-0.1,0.4s-0.2,0.2-0.4,0.2c0.2,0,0.3,0.1,0.5,0.3c0.1,0.1,0.2,0.3,0.2,0.5
		c0,0.1,0,0.3-0.1,0.4s-0.1,0.2-0.2,0.3c-0.1,0.1-0.2,0.2-0.3,0.2c-0.1,0-0.4,0.1-0.7,0.1H138.8z M139.2,96v1.1h0.3
		c0.3,0,0.5,0,0.6-0.1c0.1-0.1,0.2-0.2,0.2-0.4c0-0.2-0.1-0.4-0.2-0.4c-0.1-0.1-0.3-0.1-0.6-0.1H139.2z M139.2,97.4v1.2h0.3
		c0.2,0,0.4,0,0.4,0c0.1,0,0.2,0,0.2-0.1c0.1,0,0.1-0.1,0.2-0.2c0-0.1,0.1-0.2,0.1-0.3c0-0.1,0-0.2-0.1-0.3c0-0.1-0.1-0.2-0.2-0.2
		c-0.1,0-0.1-0.1-0.2-0.1c-0.1,0-0.2,0-0.3,0h-0.1H139.2z"/>
	<path class="st0" d="M145.6,98.9v-3.2h0.8c0.2,0,0.4,0,0.5,0c0.1,0,0.2,0.1,0.3,0.1c0.1,0.1,0.2,0.2,0.2,0.3
		c0.1,0.1,0.1,0.3,0.1,0.4c0,0.3-0.1,0.5-0.2,0.6c-0.1,0.1-0.4,0.2-0.7,0.2h-0.1l1.3,1.5h-0.5l-1.2-1.5H146v1.5H145.6z M146,96v1.1
		h0.3c0.3,0,0.5,0,0.6-0.1c0.1-0.1,0.2-0.2,0.2-0.4c0-0.2-0.1-0.4-0.2-0.4c-0.1-0.1-0.3-0.1-0.6-0.1H146z"/>
	<path class="st0" d="M152.4,98.9v-3.2h0.4v3.2H152.4z"/>
	<path class="st0" d="M157.8,98.9v-3.2h0.6c0.5,0,0.8,0,1,0.1s0.4,0.1,0.5,0.2c0.2,0.1,0.3,0.3,0.4,0.5c0.1,0.2,0.1,0.5,0.1,0.8
		c0,0.3,0,0.5-0.1,0.8c-0.1,0.2-0.2,0.4-0.4,0.5c-0.1,0.1-0.3,0.2-0.5,0.2c-0.2,0-0.5,0.1-0.9,0.1h-0.1H157.8z M158.2,98.5h0.2
		c0.4,0,0.7,0,0.8-0.1c0.2,0,0.3-0.1,0.4-0.2c0.1-0.1,0.2-0.3,0.3-0.4c0.1-0.2,0.1-0.4,0.1-0.6c0-0.2,0-0.4-0.1-0.6
		c-0.1-0.2-0.2-0.3-0.3-0.4c-0.1-0.1-0.2-0.1-0.4-0.2c-0.2,0-0.4-0.1-0.8-0.1h-0.2V98.5z"/>
	<path class="st0" d="M167.2,97.2h1.4v0.1c0,0.5-0.1,0.9-0.4,1.2c-0.3,0.3-0.7,0.4-1.2,0.4c-0.2,0-0.3,0-0.4,0
		c-0.1,0-0.3-0.1-0.4-0.1c-0.3-0.1-0.5-0.3-0.6-0.6c-0.1-0.3-0.2-0.5-0.2-0.9c0-0.3,0-0.5,0.1-0.7c0.1-0.2,0.2-0.4,0.4-0.6
		c0.1-0.1,0.3-0.2,0.5-0.3c0.2-0.1,0.4-0.1,0.6-0.1c0.3,0,0.6,0.1,0.8,0.2c0.2,0.1,0.4,0.3,0.6,0.5l-0.3,0.3
		c-0.1-0.2-0.3-0.3-0.4-0.4c-0.2-0.1-0.4-0.1-0.6-0.1c-0.4,0-0.7,0.1-0.9,0.4c-0.2,0.3-0.4,0.6-0.4,1c0,0.4,0.1,0.7,0.4,1
		c0.2,0.2,0.5,0.4,0.9,0.4c0.3,0,0.6-0.1,0.8-0.3c0.2-0.2,0.3-0.5,0.4-0.8h-0.9V97.2z"/>
	<path class="st0" d="M173.4,98.9v-3.2h1.7V96h-1.3v0.9h1.3v0.4h-1.3v1.2h1.3v0.4H173.4z"/>
</g>
<path class="st0" d="M131.3,89.3C131.3,89.3,131.3,89.3,131.3,89.3l-2-2c-0.1-0.1-0.1-0.2-0.1-0.3v-4.6c0-1-0.8-1.8-1.8-1.8h-1.3
	c-1,0-1.8,0.8-1.8,1.8v0l-3-2.9c-0.7-0.7-1.8-0.7-2.5,0l-10,10c-0.7,0.7-0.7,1.8,0,2.5l1,1c0.7,0.7,1.8,0.7,2.5,0l7.7-7.6
	c0.2-0.1,0.4-0.1,0.5,0l7.6,7.6c0.2,0.2,0.2,0.4,0,0.5l-0.9,0.9c-0.2,0.1-0.4,0.2-0.5,0l-5.3-5.2c-0.7-0.7-1.8-0.7-2.5,0l-5.1,5.1
	c-0.7,0.7-0.7,1.8,0,2.5l0.9,0.9c0.7,0.7,1.8,0.7,2.5,0l2.7-2.7c0.1-0.1,0.4-0.1,0.5,0l2.7,2.7c0.1,0.1,0.1,0.2,0.1,0.3
	c0,0.1,0,0.2-0.1,0.3l-2.7,2.7c0,0,0,0,0,0c-0.6,0-1,0.5-1,1c0,0.6,0.5,1,1,1c0.6,0,1-0.5,1-1c0,0,0,0,0,0l2.7-2.7
	c0.3-0.3,0.5-0.8,0.5-1.3c0-0.5-0.2-0.9-0.5-1.3l-2.7-2.7c-0.7-0.7-1.8-0.7-2.5,0l-2.7,2.7c-0.2,0.1-0.4,0.1-0.5,0l-0.9-0.9
	c-0.2-0.2-0.2-0.4,0-0.5l5.1-5.1c0.1-0.1,0.4-0.2,0.5,0l5.3,5.2c0.7,0.7,1.8,0.7,2.5,0l0.9-0.9c0.7-0.7,0.7-1.8,0-2.5l-7.6-7.6
	c-0.7-0.7-1.8-0.7-2.5,0l-7.7,7.6c-0.2,0.1-0.4,0.1-0.5,0l-1-1c-0.2-0.2-0.2-0.4,0-0.5l10-10c0.1-0.1,0.4-0.2,0.5,0l5.3,5.2v-3.3
	c0-0.2,0.2-0.4,0.4-0.4h1.3c0.2,0,0.4,0.2,0.4,0.4V87c0,0.5,0.2,0.9,0.5,1.3l2,2c0,0,0,0,0,0c0,0.6,0.5,1,1,1s1-0.5,1-1
	S131.9,89.3,131.3,89.3z"/>
</svg>
