<svg xmlns="http://www.w3.org/2000/svg" width="1000" height="1000" viewBox="0 0 1000 1000"><path d="M0,0V1000H1000V0ZM838.17,510.93a30.85,30.85,0,0,1-30.89-30.83c0-.36.22-.67.22-1.05l-60.81-60.81A54.62,54.62,0,0,1,730.86,380V238.79A11.87,11.87,0,0,0,719,227H680.86a11.85,11.85,0,0,0-11.81,11.81V339.35L507.1,182.62a11.83,11.83,0,0,0-16.66.14L184.87,488.32a11.81,11.81,0,0,0,0,16.67l29,29.06a11.91,11.91,0,0,0,16.66,0L465.35,302.71a54.25,54.25,0,0,1,76.25.33l230.2,230.2a54.16,54.16,0,0,1,0,76.5l-28.3,28.31a54.36,54.36,0,0,1-76,.55L506,481.66a11.81,11.81,0,0,0-16.67.16L334.21,637.66a11.87,11.87,0,0,0,0,16.67l28.64,28.72a11.81,11.81,0,0,0,16.67,0l83.86-82.7a54.26,54.26,0,0,1,76,0L622.44,682l.31.31a54.11,54.11,0,0,1,0,76.53l-82.69,82.67v.52a30.87,30.87,0,1,1-30.87-30.86c.39,0,.7.22,1.06.22l82.31-82.55a11.85,11.85,0,0,0,3.47-8.34,11.67,11.67,0,0,0-3.53-8.33l-83.11-81.7a11.87,11.87,0,0,0-16.67,0l-83.58,82.59a54.19,54.19,0,0,1-76.28-.2l-28.7-28.69a54.21,54.21,0,0,1,0-76.42l155-155.84a54.29,54.29,0,0,1,76.06-.66L696.83,607.83a11.87,11.87,0,0,0,16.67,0l28.28-28.28a11.87,11.87,0,0,0,0-16.67L511.69,332.76a11.85,11.85,0,0,0-16.67,0L260.18,564.19a54.22,54.22,0,0,1-76.22-.31l-29.09-28.94-.08-.09a54,54,0,0,1,.08-76.44L460.44,152.84a54.38,54.38,0,0,1,75.91-.63l90.23,87.39v-.81a54.16,54.16,0,0,1,54.11-54.08h38.17a54.15,54.15,0,0,1,54.08,54.08v141a11.76,11.76,0,0,0,3.47,8.33l61.12,61.11h.58a30.86,30.86,0,0,1,.06,61.72Z"/></svg>